<?xml version="1.0" encoding="UTF-8"?>
<svg version="1.1" xmlns="http://www.w3.org/2000/svg" width="696" height="696">
<path d="M0 0 C229.68 0 459.36 0 696 0 C696 229.68 696 459.36 696 696 C466.32 696 236.64 696 0 696 C0 466.32 0 236.64 0 0 Z " fill="#0085CA" transform="translate(0,0)"/>
<path d="M0 0 C22.77 0 45.54 0 69 0 C69.04420161 31.21925824 69.08108709 62.43848596 69.10213066 93.65776578 C69.10463167 97.35468896 69.10722036 101.05161208 69.10986328 104.74853516 C69.11065021 105.85238761 69.11065021 105.85238761 69.11145304 106.97854011 C69.12012397 118.84916371 69.13587541 130.71976767 69.15430559 142.59037967 C69.17309732 154.79687863 69.18413618 167.0033674 69.18817699 179.20988023 C69.19090296 186.72444673 69.19946979 194.23895769 69.21583293 201.75350706 C69.22778869 207.54370394 69.22888823 213.33386629 69.22621536 219.12407303 C69.22675989 221.47884459 69.2306607 223.83361851 69.23841095 226.18837738 C69.2979862 245.24430711 68.28435079 264.05674618 65.125 282.875 C64.95137939 283.92397461 64.77775879 284.97294922 64.59887695 286.05371094 C63.16098227 294.49784981 61.45282353 302.78428771 59 311 C58.75910645 311.80888672 58.51821289 312.61777344 58.27001953 313.45117188 C47.84191368 347.80708704 28.50003542 377.94442134 -3.49169922 395.73242188 C-16.91552995 402.84866949 -31.0209933 407.60335893 -46 410 C-47.75154819 410.3677009 -49.50174008 410.74196966 -51.25 411.125 C-62.0136593 413.23469133 -72.94676621 413.24139681 -83.875 413.25 C-85.0360173 413.25101212 -85.0360173 413.25101212 -86.2204895 413.25204468 C-98.70300181 413.23481498 -110.75065836 412.5740085 -123 410 C-123.82419434 409.83371094 -124.64838867 409.66742187 -125.49755859 409.49609375 C-150.09871642 404.39936433 -171.46391722 393.91322465 -190 377 C-190.72574219 376.35675781 -191.45148438 375.71351563 -192.19921875 375.05078125 C-209.74253491 358.64617932 -220.05396044 335.55485584 -227 313 C-227.35118896 311.90171875 -227.35118896 311.90171875 -227.70947266 310.78125 C-234.24276085 290.21745766 -237.18528453 268.34456802 -237.12025452 246.80023193 C-237.12110894 245.74050588 -237.12196337 244.68077982 -237.12284368 243.58894086 C-237.12447726 240.07457561 -237.1190122 236.56025921 -237.11352539 233.04589844 C-237.11324303 230.51214092 -237.1134022 227.97838332 -237.1139679 225.44462585 C-237.11419485 220.00837341 -237.11137751 214.57213641 -237.10573006 209.13588715 C-237.09757035 201.27618235 -237.09499527 193.41648334 -237.09374207 185.55677477 C-237.09155854 172.80200669 -237.08491749 160.04724505 -237.07543945 147.29248047 C-237.06624719 134.90934277 -237.05917525 122.52620683 -237.05493164 110.14306641 C-237.05466892 109.37856122 -237.05440619 108.61405604 -237.05413551 107.82638404 C-237.05283038 103.99072535 -237.0515667 100.15506665 -237.05032361 96.31940794 C-237.0399728 64.54626626 -237.02154628 32.77313655 -237 1 C-213.57 1 -190.14 1 -166 1 C-165.98018066 8.37762695 -165.96036133 15.75525391 -165.93994141 23.35644531 C-165.87497289 47.03023094 -165.80043003 70.70397664 -165.71994839 94.37771417 C-165.70743127 98.06219332 -165.69499823 101.74667274 -165.68261719 105.43115234 C-165.68015119 106.16458798 -165.6776852 106.89802362 -165.67514448 107.65368459 C-165.63554752 119.49007082 -165.60274276 131.32646645 -165.57250018 143.16287985 C-165.54125698 155.33097793 -165.50259391 167.49903656 -165.45720994 179.66709018 C-165.43196286 186.49205865 -165.41000925 193.31700289 -165.39665604 200.14200592 C-165.38372145 206.58028301 -165.36154699 213.01846538 -165.33261681 219.45668983 C-165.32362931 221.80583731 -165.31787176 224.155 -165.31578636 226.50416374 C-165.27880147 261.87331937 -163.41910153 304.7990963 -136.78515625 331.41015625 C-122.30174493 344.87790058 -104.68024745 349.59240137 -85.25 349.375 C-84.59014099 349.36968262 -83.93028198 349.36436523 -83.25042725 349.35888672 C-62.23993452 349.16047655 -43.52249094 345.07418796 -28 330 C-10.84648882 312.33634722 -5.07259024 286.55328201 -2 263 C-1.9172248 262.37950856 -1.83444961 261.75901712 -1.74916607 261.1197229 C-1.01310988 255.15545928 -0.84788677 249.28003722 -0.84178162 243.27488708 C-0.83684364 242.22997496 -0.83190566 241.18506284 -0.82681805 240.10848671 C-0.81152673 236.62628107 -0.80310522 233.14409374 -0.79467773 229.66186523 C-0.78509263 227.15810486 -0.77508218 224.65434609 -0.76467896 222.15058899 C-0.74327609 216.76995311 -0.72481873 211.3893196 -0.70907402 206.00866508 C-0.68630502 198.22926384 -0.6581722 190.44988915 -0.62875474 182.67051054 C-0.58116468 170.04719783 -0.53787741 157.42387421 -0.49731445 144.80053711 C-0.45791572 132.54239047 -0.41647909 120.28425349 -0.37231445 108.02612305 C-0.36822804 106.8916245 -0.36822804 106.8916245 -0.36405908 105.73420679 C-0.35037888 101.93968828 -0.33665875 98.14516992 -0.32291877 94.35065162 C-0.20908897 62.90045344 -0.103046 31.45023582 0 0 Z " fill="#FEFEFE" transform="translate(347,151)"/>
<path d="M0 0 C23.43 0 46.86 0 71 0 C71 100.32 71 200.64 71 304 C47.57 304 24.14 304 0 304 C0 203.68 0 103.36 0 0 Z " fill="#FEFEFE" transform="translate(510,260)"/>
<path d="M0 0 C1.33611328 -0.02416992 1.33611328 -0.02416992 2.69921875 -0.04882812 C14.91127931 -0.05769029 25.41977878 4.25532264 34.5 12.4375 C42.74477903 21.1902512 45.01993915 31.43766381 44.90234375 43.02734375 C44.41307497 53.57798594 40.61297111 63.08574439 32.75 70.3125 C19.46737183 80.56091758 5.08735919 81.99349405 -11.25 80.3125 C-21.68209695 77.80879673 -31.20106264 71.21538703 -37.25 62.3125 C-38.76231594 59.37483837 -40.03126349 56.38121604 -41.25 53.3125 C-41.58 52.6525 -41.91 51.9925 -42.25 51.3125 C-42.5169321 48.13155908 -42.48164839 44.94088646 -42.5 41.75 C-42.520625 40.88052734 -42.54125 40.01105469 -42.5625 39.11523438 C-42.62247812 29.06140254 -39.79610887 21.86213971 -33.25 14.3125 C-32.7240625 13.69246094 -32.198125 13.07242188 -31.65625 12.43359375 C-27.23033422 7.60057722 -22.27745279 4.79987233 -16.25 2.3125 C-15.36957031 1.94382812 -14.48914063 1.57515625 -13.58203125 1.1953125 C-9.01948172 -0.01352243 -4.69991099 -0.01671377 0 0 Z " fill="#FDFEFE" transform="translate(545.25,125.6875)"/>
</svg>
